# xmcd CD database file
#
# Track frame offsets:
#	150
#	18706
#	51050
#	81851
#	100842
#	132304
#	150934
#	180281
#	194364
#	227445
#	238198
#	275511
#	291035
#	309135
#	328908
#
# Disc length: 4743 seconds
#
# Revision: 0
# Processed by: cddbd v1.5.2PL0 Copyright (c) Steve Scherf et al.
# Submitted via: CDex 1.51
#
DISCID=c112850f
DTITLE=Various Artist - VA - A Feast Of Basho
DYEAR=2008
DGENRE=Jazz
TTITLE0=Tim Lapthorn - The Bark And The Bite
TTITLE1=Paul Booth - Andorra
TTITLE2=Alec Dankworth - El Levante
TTITLE3=Iain Ballamy's Anorak - The Worm
TTITLE4=Neon - Sweets
TTITLE5=Liam Noble - Jitters
TTITLE6=Kathleen Willison - Tenderness
TTITLE7=Martin Speake - Smoke Gets In Your Eyes
TTITLE8=Chris Laurence - Tell Me Why
TTITLE9=Mark Lockheart - Tell Me Why
TTITLE10=Gwilym Simcock - A Typical Affair
TTITLE11=Julian Arguelles - Warm Winter Coat
TTITLE12=Frank Harrison Trio - Falling
TTITLE13=Nikki Iles - Fly's Dilemma
TTITLE14=Julian Siegel Trio - MAB
EXTD=YEAR: 2008
EXTT0=
EXTT1=
EXTT2=
EXTT3=
EXTT4=
EXTT5=
EXTT6=
EXTT7=
EXTT8=
EXTT9=
EXTT10=
EXTT11=
EXTT12=
EXTT13=
EXTT14=
PLAYORDER=
